<svg version="1.1" xmlns="http://www.w3.org/2000/svg" xmlns:xlink="http://www.w3.org/1999/xlink" x="0px" y="0px" viewBox="0 0 18 14" xml:space="preserve" class="-g-w-18 -g-h-12" style="enable-background: new 0 0 18 14;"><g id="Group_2745" transform="translate(1 1)"><g id="Group_2739"><path id="Path_6665" fill="#0E215E" d="M6.8,13c-0.2,0-0.5-0.1-0.7-0.3l-6.8-6C-0.9,6.6-1,6.3-1,6s0.1-0.6,0.3-0.7l6.8-6
                  c0.4-0.4,1-0.3,1.4,0.1c0.4,0.4,0.3,1-0.1,1.4c0,0,0,0,0,0L1.5,6l5.9,5.3c0.4,0.4,0.5,1,0.1,1.4c0,0,0,0,0,0C7.3,12.9,7,13,6.8,13
                  z"></path><path id="Line_186" fill="#0E215E" d="M16,6.9H1c-0.6,0-1-0.4-1-1s0.4-1,1-1h15c0.6,0,1,0.4,1,1S16.6,6.9,16,6.9z"></path></g></g></svg>